<?xml version="1.0" encoding="UTF-8"?>
<svg version="1.1" xmlns="http://www.w3.org/2000/svg" width="512" height="512">
<path d="M0 0 C1.51427582 0.00081573 1.51427582 0.00081573 3.05914307 0.00164795 C19.56873539 0.04241399 35.48532001 0.94970691 51.6875 4.375 C52.72938477 4.59462402 53.77126953 4.81424805 54.84472656 5.04052734 C101.13799311 15.13814785 143.55163721 37.49728758 177.6875 70.375 C178.6765332 71.32318604 178.6765332 71.32318604 179.68554688 72.29052734 C189.17380305 81.43497479 197.9137044 90.73234009 205.6875 101.375 C206.54556152 102.52605017 207.40363451 103.67709177 208.26171875 104.828125 C214.29927396 113.01775981 219.68207302 121.52038276 224.6875 130.375 C225.0896875 131.08221191 225.491875 131.78942383 225.90625 132.51806641 C238.9316741 155.65345836 247.68051461 180.82462409 253 206.8125 C253.14735596 207.53139404 253.29471191 208.25028809 253.4465332 208.9909668 C256.42039088 224.63725609 257.06050362 240.11068046 257 256 C256.99784485 257.01790619 256.9956897 258.03581238 256.99346924 259.08456421 C256.94379854 273.69363523 256.69290191 288.02575853 253.6875 302.375 C253.38948486 303.83728027 253.38948486 303.83728027 253.08544922 305.32910156 C242.96482806 353.7109774 221.0483123 397.69928269 186.6875 433.375 C186.05537598 434.03435547 185.42325195 434.69371094 184.77197266 435.37304688 C175.62752521 444.86130305 166.33015991 453.6012044 155.6875 461.375 C154.53644983 462.23306152 153.38540823 463.09113451 152.234375 463.94921875 C144.04474019 469.98677396 135.54211724 475.36957302 126.6875 480.375 C125.98028809 480.7771875 125.27307617 481.179375 124.54443359 481.59375 C101.40904164 494.6191741 76.23787591 503.36801461 50.25 508.6875 C49.53110596 508.83485596 48.81221191 508.98221191 48.0715332 509.1340332 C32.54487908 512.08515207 17.14436592 512.78207988 1.375 512.75 C-0.13927582 512.74918427 -0.13927582 512.74918427 -1.68414307 512.74835205 C-18.19373539 512.70758601 -34.11032001 511.80029309 -50.3125 508.375 C-51.35438477 508.15537598 -52.39626953 507.93575195 -53.46972656 507.70947266 C-99.76299311 497.61185215 -142.17663721 475.25271242 -176.3125 442.375 C-176.97185547 441.74287598 -177.63121094 441.11075195 -178.31054688 440.45947266 C-187.79880305 431.31502521 -196.5387044 422.01765991 -204.3125 411.375 C-205.17056152 410.22394983 -206.02863451 409.07290823 -206.88671875 407.921875 C-212.92427396 399.73224019 -218.30707302 391.22961724 -223.3125 382.375 C-223.7146875 381.66778809 -224.116875 380.96057617 -224.53125 380.23193359 C-237.5566741 357.09654164 -246.30551461 331.92537591 -251.625 305.9375 C-251.77235596 305.21860596 -251.91971191 304.49971191 -252.0715332 303.7590332 C-255.04539088 288.11274391 -255.68550362 272.63931954 -255.625 256.75 C-255.62284485 255.73209381 -255.6206897 254.71418762 -255.61846924 253.66543579 C-255.56879854 239.05636477 -255.31790191 224.72424147 -252.3125 210.375 C-252.11382324 209.40014648 -251.91514648 208.42529297 -251.71044922 207.42089844 C-241.58982806 159.0390226 -219.6733123 115.05071731 -185.3125 79.375 C-184.68037598 78.71564453 -184.04825195 78.05628906 -183.39697266 77.37695312 C-174.25252521 67.88869695 -164.95515991 59.1487956 -154.3125 51.375 C-153.16144983 50.51693848 -152.01040823 49.65886549 -150.859375 48.80078125 C-142.66974019 42.76322604 -134.16711724 37.38042698 -125.3125 32.375 C-124.60528809 31.9728125 -123.89807617 31.570625 -123.16943359 31.15625 C-100.03404164 18.1308259 -74.86287591 9.38198539 -48.875 4.0625 C-48.15610596 3.91514404 -47.43721191 3.76778809 -46.6965332 3.6159668 C-31.16987908 0.66484793 -15.76936592 -0.03207988 0 0 Z " fill="#4086F4" transform="translate(255.3125,-0.375)"/>
<path d="M0 0 C3.76943137 14.24556085 7.12338069 28.37427166 9 43 C9.08732895 43.66720566 9.1746579 44.33441132 9.26463318 45.02183533 C9.96087491 50.73820476 10.17456164 56.37742632 10.203125 62.1328125 C10.21018463 63.07916061 10.21724426 64.02550873 10.22451782 65.00053406 C10.45241099 104.51652112 10.45241099 104.51652112 7 121 C6.70198486 122.46228027 6.70198486 122.46228027 6.39794922 123.95410156 C-3.72267194 172.3359774 -25.6391877 216.32428269 -60 252 C-60.63212402 252.65935547 -61.26424805 253.31871094 -61.91552734 253.99804688 C-71.05997479 263.48630305 -80.35734009 272.2262044 -91 280 C-92.15105017 280.85806152 -93.30209177 281.71613451 -94.453125 282.57421875 C-102.64275981 288.61177396 -111.14538276 293.99457302 -120 299 C-120.70721191 299.4021875 -121.41442383 299.804375 -122.14306641 300.21875 C-145.27845836 313.2441741 -170.44962409 321.99301461 -196.4375 327.3125 C-197.15639404 327.45985596 -197.87528809 327.60721191 -198.6159668 327.7590332 C-214.14262092 330.71015207 -229.54313408 331.40707988 -245.3125 331.375 C-246.82677582 331.37418427 -246.82677582 331.37418427 -248.37164307 331.37335205 C-264.88123539 331.33258601 -280.79782001 330.42529309 -297 327 C-298.04188477 326.78037598 -299.08376953 326.56075195 -300.15722656 326.33447266 C-355.13848511 314.34180234 -398.95253878 285.53973427 -438 246 C-434.19915158 241.46078495 -430.27491215 237.13094347 -426.0774231 232.95716858 C-425.23056326 232.10902711 -425.23056326 232.10902711 -424.36659515 231.24375147 C-422.49431664 229.36983981 -420.61851253 227.49949961 -418.74267578 225.62915039 C-417.39183931 224.27859629 -416.04122358 222.92782136 -414.69081116 221.57684326 C-411.03855963 217.92430569 -407.38324056 214.27485219 -403.72735071 210.62595677 C-399.90187803 206.80674973 -396.07925085 202.98469679 -392.25631714 199.16294861 C-385.02303933 191.93277466 -377.78721694 184.7051529 -370.55047023 177.47845119 C-362.30908941 169.24826087 -354.07055941 161.01521936 -345.83226418 152.78194058 C-328.8913398 135.85145918 -311.94684971 118.9245502 -295 102 C-291.65361414 103.58613593 -289.47034662 105.30029156 -286.86499023 107.95556641 C-286.05992538 108.77046539 -285.25486053 109.58536438 -284.42539978 110.42495728 C-283.1300808 111.74987686 -283.1300808 111.74987686 -281.80859375 113.1015625 C-280.43204881 114.49330993 -279.05549433 115.88504807 -277.67841434 117.2762661 C-274.29578279 120.69699729 -270.92433008 124.12873123 -267.55444336 127.56201172 C-265.66391101 129.48733624 -263.7691518 131.40833321 -261.87013245 133.32528687 C-260.08907947 135.12398617 -258.31434709 136.92897511 -256.54722595 138.74136353 C-240.57871137 154.83887988 -221.51693226 165.11198083 -198.5625 165.3125 C-174.67495859 165.3125 -156.09201078 154.27806126 -139.54775798 137.77994144 C-137.56444635 135.79085852 -135.58603974 133.79697191 -133.60766602 131.80297852 C-132.17162545 130.36309444 -130.73512503 128.92366886 -129.29820251 127.48466492 C-126.21956585 124.39973353 -123.14405704 121.31172987 -120.07095528 118.22128487 C-115.21509114 113.33829093 -110.35153103 108.46301113 -105.48680115 103.58885193 C-95.17275422 93.25265655 -84.867221 82.90799165 -74.5625 72.5625 C-63.41286784 61.36882941 -52.26177827 50.17663361 -41.10095543 38.99411911 C-36.26074501 34.14392124 -31.42545728 29.2888836 -26.59383118 24.43013489 C-23.5977249 21.41916817 -20.59753312 18.41229855 -17.59618568 15.40655708 C-16.20038861 14.00699933 -14.80632964 12.60570579 -13.41409683 11.20260239 C-11.52149389 9.29568192 -9.62292247 7.39491534 -7.72267151 5.49562073 C-6.88850097 4.65066531 -6.88850097 4.65066531 -6.03747851 3.78864008 C-2.22818667 0 -2.22818667 0 0 0 Z " fill="#4175DF" transform="translate(502,181)"/>
<path d="M0 0 C3.99309512 1.33103171 5.60181265 3.95435133 8.0625 7.1875 C8.78832275 8.12928101 8.78832275 8.12928101 9.52880859 9.09008789 C11.0308973 11.05151523 12.51832462 13.02311623 14 15 C14.66539795 15.88655273 14.66539795 15.88655273 15.34423828 16.79101562 C21.83845883 25.50921668 27.65123625 34.53801885 33 44 C33.4021875 44.70721191 33.804375 45.41442383 34.21875 46.14306641 C39.50792779 55.53755524 44.04845111 65.09116506 48 75.125 C48.56074219 76.54619141 48.56074219 76.54619141 49.1328125 77.99609375 C50.14919056 80.65749853 51.14163104 83.2829249 52 86 C52.35319529 86.99441098 52.35319529 86.99441098 52.71352583 88.00891107 C53.43581377 90.40434213 53.90435018 92.49619253 54 95 C52.27614004 97.86810296 50.98821757 99.4843485 48.63340759 101.72303772 C48.03175594 102.33761587 47.4301043 102.95219402 46.81022078 103.58539575 C44.78675268 105.63869833 42.72634978 107.65030282 40.66381836 109.66430664 C39.2050604 111.12814755 37.74869007 112.59437112 36.29454041 114.06278992 C32.33504604 118.04683115 28.34202526 121.99563765 24.34153438 125.93845677 C20.15467164 130.07512592 15.99704772 134.24098977 11.83558655 138.40318298 C4.83492839 145.39639777 -2.18653707 152.36814918 -9.22192383 159.32641602 C-17.33658451 167.35240543 -25.42339703 175.40558235 -33.49438959 183.4754687 C-42.10229388 192.08179381 -50.72917913 200.66889257 -59.36229777 209.24991679 C-61.83902722 211.71407103 -64.31235472 214.18159693 -66.78499031 216.64985847 C-70.68918122 220.5450698 -74.60609018 224.42705429 -78.53279686 228.29956245 C-79.96513461 229.71582602 -81.39341658 231.13620622 -82.81710052 232.56116867 C-99.53881084 249.2847384 -118.74696194 261.318038 -143.125 261.4375 C-171.80356645 260.99182989 -190.76672978 245.46241528 -210.0703125 226.02734375 C-210.87741669 225.21882462 -211.68452087 224.41030548 -212.51608276 223.57728577 C-215.05477873 221.03306065 -217.58994672 218.48535414 -220.125 215.9375 C-221.8617454 214.19573042 -223.5987226 212.45419194 -225.3359375 210.71289062 C-229.55997002 206.47792328 -233.78112388 202.24010384 -238 198 C-242.0595972 199.61809642 -244.78013632 202.50666941 -247.79595947 205.55545044 C-248.3710745 206.12885662 -248.94618953 206.7022628 -249.53873229 207.29304492 C-251.46582859 209.21684534 -253.38568669 211.14770997 -255.30566406 213.07861328 C-256.68511731 214.45863062 -258.06501099 215.83820781 -259.4453125 217.21737671 C-263.19324962 220.96473924 -266.93498172 224.71824298 -270.67564869 228.47286081 C-274.58518719 232.39488887 -278.50037772 236.3112663 -282.41497803 240.22824097 C-289.82787875 247.64736167 -297.23566581 255.07156659 -304.64163947 262.49760139 C-313.07293844 270.95124321 -321.50990677 279.39921707 -329.94736147 287.84671426 C-347.30456681 305.22483334 -364.65462291 322.61007552 -382 340 C-385.99309512 338.66896829 -387.60181265 336.04564867 -390.0625 332.8125 C-390.54638184 332.184646 -391.03026367 331.55679199 -391.52880859 330.90991211 C-393.0308973 328.94848477 -394.51832462 326.97688377 -396 325 C-396.44359863 324.40896484 -396.88719727 323.81792969 -397.34423828 323.20898438 C-403.83845883 314.49078332 -409.65123625 305.46198115 -415 296 C-415.4021875 295.29278809 -415.804375 294.58557617 -416.21875 293.85693359 C-421.50792779 284.46244476 -426.04845111 274.90883494 -430 264.875 C-430.56074219 263.45380859 -430.56074219 263.45380859 -431.1328125 262.00390625 C-432.14919056 259.34250147 -433.14163104 256.7170751 -434 254 C-434.23561966 253.33713741 -434.47123932 252.67427483 -434.71399897 251.9913255 C-436.48677635 246.11567123 -436.48677635 246.11567123 -435.21223986 243.19448638 C-433.79608084 241.3938817 -432.28126615 239.84787167 -430.61994934 238.27023315 C-430.01688656 237.65494944 -429.41382378 237.03966572 -428.79248637 236.40573704 C-426.76433301 234.35009144 -424.6992637 232.33615984 -422.63208008 230.31982422 C-421.170071 228.85436946 -419.7104557 227.3865232 -418.25306702 225.91647339 C-414.28532578 221.92846398 -410.28415498 217.97561277 -406.27567124 214.02861166 C-402.08225318 209.88909899 -397.91844969 205.71999959 -393.75090027 201.55447388 C-386.74165571 194.5572501 -379.7119513 187.58114365 -372.66821289 180.61865234 C-364.53917519 172.58316824 -356.43600089 164.52237043 -348.34791261 156.44568241 C-339.72621059 147.83616512 -331.08930274 139.24204349 -322.44598937 130.65422678 C-319.96342329 128.18604251 -317.48329604 125.71542823 -315.00354958 123.24441147 C-311.0922971 119.34894116 -307.17065807 115.46421704 -303.24098778 111.58732986 C-301.80544715 110.16816691 -300.37315222 108.74571155 -298.94448853 107.31962585 C-291.4517866 99.84530024 -284.35688781 93.10640694 -275 88 C-273.85789062 87.37609375 -272.71578125 86.7521875 -271.5390625 86.109375 C-251.17560414 76.61006735 -230.71744694 76.90134536 -209.76953125 84.46875 C-190.3574679 92.0054898 -176.07233505 109.79210588 -161.75 124.1875 C-160.02237054 125.92015635 -158.29450768 127.65258001 -156.56640625 129.38476562 C-152.3749118 133.58716714 -148.18629891 137.79242316 -144 142 C-139.9404028 140.38190358 -137.21986368 137.49333059 -134.20404053 134.44454956 C-133.6289255 133.87114338 -133.05381047 133.2977372 -132.46126771 132.70695508 C-130.53417141 130.78315466 -128.61431331 128.85229003 -126.69433594 126.92138672 C-125.31488269 125.54136938 -123.93498901 124.16179219 -122.5546875 122.78262329 C-118.80675038 119.03526076 -115.06501828 115.28175702 -111.32435131 111.52713919 C-107.41481281 107.60511113 -103.49962228 103.6887337 -99.58502197 99.77175903 C-92.17212125 92.35263833 -84.76433419 84.92843341 -77.35836053 77.50239861 C-68.92706156 69.04875679 -60.49009323 60.60078293 -52.05263853 52.15328574 C-34.69543319 34.77516666 -17.34537709 17.38992448 0 0 Z " fill="#E2E6E9" transform="translate(447,86)"/>
<path d="M0 0 C3.37705954 1.60015726 5.59979455 3.35653699 8.24609375 6.01904297 C9.07375244 6.84685272 9.90141113 7.67466248 10.75415039 8.52755737 C11.63965576 9.42338531 12.52516113 10.31921326 13.4375 11.2421875 C14.3545874 12.1621048 15.2716748 13.08202209 16.21655273 14.02981567 C18.65252282 16.4734077 21.08243306 18.92293978 23.5111084 21.3737793 C25.9751617 23.85823674 28.4448262 26.33710187 30.9140625 28.81640625 C35.26434085 33.18580336 39.60966357 37.56008836 43.95141602 41.93795776 C45.93590244 44.01579584 45.93590244 44.01579584 48.10034561 45.66934776 C50.66319247 48.81365907 50.53009272 51.47379099 50.4430542 55.35247803 C50.44238835 56.0950187 50.44172249 56.83755938 50.44103646 57.60260129 C50.43391068 60.0920149 50.39803392 62.58018073 50.36230469 65.06933594 C50.35131495 66.85314469 50.34209616 68.63696511 50.33451843 70.42079163 C50.30890642 75.26570517 50.2584706 80.11008224 50.20364666 84.95474148 C50.15056033 90.01686729 50.12020667 95.07912755 50.08746338 100.14141846 C50.02198744 109.72856505 49.93600512 119.3154142 49.84269357 128.90232587 C49.73746157 139.81624496 49.65503146 150.73029875 49.5745368 161.64442396 C49.40843447 184.09652518 49.21363157 206.54830429 49 229 C45.32349384 229.01945071 41.64700111 229.03114188 37.97045898 229.04150391 C36.41957706 229.04985008 36.41957706 229.04985008 34.8373642 229.05836487 C27.10408742 229.074695 19.70788621 228.5977687 12.0625 227.375 C10.31646484 227.10876831 10.31646484 227.10876831 8.53515625 226.8371582 C-51.95068753 217.15202683 -100.57158627 186.9633106 -143 144 C-139.19915158 139.46078495 -135.27491215 135.13094347 -131.0774231 130.95716858 C-130.23056326 130.10902711 -130.23056326 130.10902711 -129.36659515 129.24375147 C-127.49431664 127.36983981 -125.61851253 125.49949961 -123.74267578 123.62915039 C-122.39183931 122.27859629 -121.04122358 120.92782136 -119.69081116 119.57684326 C-116.03855963 115.92430569 -112.38324056 112.27485219 -108.72735071 108.62595677 C-104.90187803 104.80674973 -101.07925085 100.98469679 -97.25631714 97.16294861 C-90.02303933 89.93277466 -82.78721694 82.7051529 -75.55047023 75.47845119 C-67.30908941 67.24826087 -59.07055941 59.01521936 -50.83226418 50.78194058 C-33.8913398 33.85145918 -16.94684971 16.9245502 0 0 Z " fill="#4086F4" transform="translate(207,283)"/>
<path d="M0 0 C26.77715434 0 26.77715434 0 36.9375 1.625 C38.10152344 1.80248779 39.26554687 1.97997559 40.46484375 2.1628418 C100.95068753 11.84797317 149.57158627 42.0366894 192 85 C188.19915158 89.53921505 184.27491215 93.86905653 180.0774231 98.04283142 C179.23056326 98.89097289 179.23056326 98.89097289 178.36659515 99.75624853 C176.49431664 101.63016019 174.61851253 103.50050039 172.74267578 105.37084961 C171.39183931 106.72140371 170.04122358 108.07217864 168.69081116 109.42315674 C165.03855963 113.07569431 161.38324056 116.72514781 157.72735071 120.37404323 C153.90187803 124.19325027 150.07925085 128.01530321 146.25631714 131.83705139 C139.02303933 139.06722534 131.78721694 146.2948471 124.55047023 153.52154881 C116.30908941 161.75173913 108.07055941 169.98478064 99.83226418 178.21805942 C82.8913398 195.14854082 65.94684971 212.0754498 49 229 C45.55998332 227.37389875 43.32019084 225.55815458 40.63037109 222.84155273 C39.77623627 221.98403915 38.92210144 221.12652557 38.04208374 220.24302673 C37.12843048 219.31591385 36.21477722 218.38880096 35.2734375 217.43359375 C34.32038643 216.47426895 33.36681616 215.51545969 32.41275024 214.55714417 C29.90713443 212.03824926 27.40715343 209.51384196 24.90875244 206.98779297 C20.90405009 202.93990249 16.89255163 198.89877416 12.87782669 194.86082649 C11.47616499 193.4489324 10.07807294 192.03349745 8.68002319 190.61802673 C7.40827744 189.3364846 7.40827744 189.3364846 6.11083984 188.02905273 C5.36345551 187.27341537 4.61607117 186.51777802 3.84603882 185.73924255 C2.10683697 183.93348462 2.10683697 183.93348462 0 183 C0 122.61 0 62.22 0 0 Z " fill="#4175DF" transform="translate(256,0)"/>
<path d="M0 0 C25 25 50 50 75 75 C74.57787483 75.35125474 74.15574966 75.70250948 73.72083282 76.0644083 C66.64742729 82.09341346 60.16446941 88.70256524 53.60742188 95.27905273 C52.26657241 96.62018466 50.92550194 97.96109566 49.58422852 99.30180359 C45.96274106 102.92300537 42.34433456 106.54727139 38.72649193 110.17211413 C34.93799036 113.96688756 31.14663689 117.75880953 27.35559082 121.55104065 C20.1856564 128.72407712 13.01827386 135.8996578 5.85181475 143.07616621 C-2.31068257 151.24985972 -10.47603606 159.42069743 -18.6416254 167.5913018 C-35.43092023 184.39103548 -52.21664231 201.19433511 -69 218 C-72.99309512 216.66896829 -74.60181265 214.04564867 -77.0625 210.8125 C-77.54638184 210.184646 -78.03026367 209.55679199 -78.52880859 208.90991211 C-80.0308973 206.94848477 -81.51832462 204.97688377 -83 203 C-83.44359863 202.40896484 -83.88719727 201.81792969 -84.34423828 201.20898438 C-90.83845883 192.49078332 -96.65123625 183.46198115 -102 174 C-102.4021875 173.29278809 -102.804375 172.58557617 -103.21875 171.85693359 C-108.50792779 162.46244476 -113.04845111 152.90883494 -117 142.875 C-117.37382813 141.92753906 -117.74765625 140.98007812 -118.1328125 140.00390625 C-119.14919056 137.34250147 -120.14163104 134.7170751 -121 132 C-121.30156195 131.40190867 -121.60312389 130.80381735 -121.91382408 130.18760204 C-122.96786382 127.53850227 -123.27880518 125.85702119 -123 123 C-119.97472743 118.2788298 -115.94764076 114.55845769 -111.93603516 110.68725586 C-110.72216065 109.4764848 -109.51070447 108.26328507 -108.30149841 107.04785156 C-105.01367993 103.75687611 -101.69304539 100.50092162 -98.36550951 97.25017619 C-94.89320509 93.84662494 -91.45201616 90.41190792 -88.00741577 86.98036194 C-81.48073721 80.48787634 -74.92652694 74.0239382 -68.36197889 67.56976944 C-60.88951552 60.22024709 -53.44825423 52.83947421 -46.00945973 45.45590007 C-30.70745636 30.26888318 -15.36665955 15.1215742 0 0 Z " fill="#BED6FA" transform="translate(134,208)"/>
<path d="M0 0 C2 2 2 2 2.24609566 4.54184914 C2.24333028 6.16512658 2.24333028 6.16512658 2.24050903 7.82119751 C2.24325836 9.06082748 2.24600769 10.30045746 2.24884033 11.57765198 C2.24176158 12.95883274 2.23449196 14.34001254 2.22705078 15.72119141 C2.22648688 17.16974378 2.22680281 18.61829672 2.22793579 20.06684875 C2.22851114 24.00673707 2.21672748 27.94650435 2.20278788 31.88636446 C2.19031078 36.00100884 2.18911241 40.11565579 2.18673706 44.23031616 C2.18051338 52.02533081 2.1640906 59.82028956 2.14403808 67.61527956 C2.12170664 76.48818433 2.1106926 85.36109174 2.10064721 94.23401761 C2.07972512 112.4893768 2.04453195 130.74468391 2 149 C-1.60401778 146.89710946 -4.46440334 144.7879807 -7.4230957 141.83569336 C-8.26358963 141.00150375 -9.10408356 140.16731415 -9.970047 139.30784607 C-11.30938545 137.96243492 -11.30938545 137.96243492 -12.67578125 136.58984375 C-13.6009404 135.66659805 -14.52609955 134.74335236 -15.47929382 133.79212952 C-17.42997374 131.84438854 -19.37701389 129.89309983 -21.3215332 127.93920898 C-23.81771439 125.43158633 -26.32283144 122.93311299 -28.83070087 120.43718624 C-31.22141828 118.05541198 -33.6045103 115.66607054 -35.98828125 113.27734375 C-36.89129471 112.37837875 -37.79430817 111.47941376 -38.72468567 110.5532074 C-39.96178535 109.30665123 -39.96178535 109.30665123 -41.22387695 108.03491211 C-41.95492142 107.30227646 -42.68596588 106.56964081 -43.43916321 105.81480408 C-45 104 -45 104 -45 102 C-45.59512988 101.72921568 -46.19025976 101.45843136 -46.80342388 101.17944145 C-48.97610677 100.01282936 -50.40212635 98.85625173 -52.1452179 97.12893677 C-52.7411525 96.54297729 -53.3370871 95.95701782 -53.95108032 95.353302 C-54.59282196 94.71222504 -55.2345636 94.07114807 -55.89575195 93.41064453 C-56.58069229 92.73402771 -57.26563263 92.05741089 -57.97132874 91.36029053 C-60.23245848 89.12324768 -62.48586316 86.87862464 -64.73828125 84.6328125 C-66.3042995 83.07575799 -67.87039655 81.51878274 -69.43656921 79.96188354 C-72.71608598 76.69885327 -75.99118575 73.43145716 -79.26391602 70.16162109 C-83.4668815 65.96405435 -87.68578105 61.78289912 -91.9087801 57.60550117 C-95.14699666 54.39695311 -98.37397491 51.17728346 -101.59789085 47.95437241 C-103.14922035 46.40726162 -104.70469022 44.86429136 -106.2642765 43.3255043 C-108.43853309 41.17796238 -110.59658363 39.01534504 -112.7512207 36.84814453 C-113.4030835 36.21111603 -114.05494629 35.57408752 -114.7265625 34.91775513 C-115.59931572 34.03035645 -115.59931572 34.03035645 -116.48970032 33.12503052 C-117.2575962 32.36015162 -117.2575962 32.36015162 -118.04100513 31.57982063 C-119 30 -119 30 -118.79651165 27.96955681 C-117.5323759 24.84369271 -115.17268342 22.72547366 -112.8203125 20.38671875 C-112.29291473 19.85407913 -111.76551697 19.32143951 -111.22213745 18.7726593 C-110.10109763 17.64519828 -108.97616079 16.52160068 -107.84765625 15.40161133 C-106.15347709 13.71583584 -104.47861683 12.01249439 -102.8046875 10.30664062 C-74.23884118 -18.44836599 -33.45649233 -23.57043705 0 0 Z " fill="#F0F2F4" transform="translate(254,180)"/>
</svg>
